<svg width="250" height="250" viewBox="0 0 250 250" fill="none" xmlns="http://www.w3.org/2000/svg">
<path opacity="0.3" d="M89.9011 100.46C89.9011 94.6283 94.629 89.9005 100.461 89.9005H191.54C197.372 89.9005 202.1 94.6283 202.1 100.46V191.54C202.1 197.372 197.372 202.099 191.54 202.099H100.461C94.629 202.099 89.9011 197.372 89.9011 191.54V100.46Z" fill="white"/>
<path opacity="0.5" d="M181.371 170.813C181.371 176.645 176.643 181.372 170.811 181.372H79.732C73.8999 181.372 69.1721 176.645 69.1721 170.813V79.7334C69.1721 73.9013 73.8999 69.1735 79.732 69.1735H170.811C176.643 69.1735 181.371 73.9013 181.371 79.7334V170.813Z" fill="white"/>
<path opacity="0.9" d="M160.643 150.083C160.643 155.915 155.915 160.643 150.083 160.643H59.0037C53.1717 160.643 48.4438 155.915 48.4438 150.083V59.0039C48.4438 53.1718 53.1717 48.444 59.0037 48.444H150.083C155.915 48.444 160.643 53.1718 160.643 59.0039V150.083Z" fill="white"/>
</svg>
