<svg width="393" height="100" viewBox="0 0 393 100" fill="none" xmlns="http://www.w3.org/2000/svg">
<path d="M129.161 72.0181C127.93 72.0181 126.932 71.0245 126.932 69.7987V36.9708C126.932 35.745 127.93 34.7513 129.161 34.7513H132.931C134.162 34.7513 135.16 35.745 135.16 36.9708V65.0934H150.236C151.467 65.0934 152.465 66.087 152.465 67.3128V69.7987C152.465 71.0245 151.467 72.0181 150.236 72.0181H129.161Z" fill="black"/>
<path d="M165.483 72.5996C163.537 72.5996 161.821 72.2296 160.334 71.4895C158.848 70.7495 157.663 69.7451 156.778 68.4765C155.928 67.2078 155.504 65.7806 155.504 64.1947C155.504 62.327 155.999 60.8293 156.99 59.7016C157.981 58.5739 159.591 57.781 161.821 57.3229C164.05 56.8295 167.005 56.5828 170.686 56.5828H172.597V55.6842C172.597 54.1336 172.243 53.0411 171.535 52.4068C170.827 51.7372 169.624 51.4025 167.925 51.4025C166.51 51.4025 165.006 51.6315 163.413 52.0896C162.615 52.3065 161.816 52.5836 161.018 52.921C159.778 53.4447 158.292 52.9426 157.786 51.7001L157.255 50.3992C156.855 49.4159 157.205 48.2766 158.164 47.8124C158.701 47.5522 159.283 47.304 159.91 47.0679C161.254 46.5745 162.652 46.2045 164.103 45.9578C165.554 45.6759 166.934 45.5349 168.244 45.5349C172.278 45.5349 175.286 46.4512 177.268 48.2837C179.25 50.0809 180.241 52.8826 180.241 56.6885V69.7987C180.241 71.0245 179.243 72.0181 178.012 72.0181H174.985C173.754 72.0181 172.756 71.0245 172.756 69.7987V68.1064C172.225 69.4808 171.323 70.5733 170.049 71.3838C168.81 72.1943 167.288 72.5996 165.483 72.5996ZM167.288 67.2607C168.775 67.2607 170.031 66.7497 171.057 65.7277C172.083 64.7057 172.597 63.3842 172.597 61.7632V60.7059H170.739C168.014 60.7059 166.085 60.9526 164.953 61.446C163.82 61.9041 163.254 62.7146 163.254 63.8776C163.254 64.8643 163.59 65.6748 164.263 66.3092C164.97 66.9435 165.979 67.2607 167.288 67.2607Z" fill="black"/>
<path d="M191.438 81.533C189.817 81.533 188.738 79.8654 189.409 78.396L192.968 70.5909L183.603 49.1688C182.962 47.7029 184.04 46.0635 185.646 46.0635H189.168C190.084 46.0635 190.906 46.6209 191.242 47.469L197.214 62.5561L203.391 47.4462C203.733 46.6102 204.549 46.0635 205.455 46.0635H208.495C210.106 46.0635 211.185 47.7139 210.533 49.1812L196.74 80.2119C196.383 81.0151 195.584 81.533 194.702 81.533H191.438Z" fill="black"/>
<path d="M227.179 72.5996C224.1 72.5996 221.446 72.0534 219.217 70.9609C217.023 69.8332 215.324 68.265 214.121 66.2563C212.953 64.2124 212.369 61.816 212.369 59.0673C212.369 56.389 212.935 54.0455 214.068 52.0368C215.235 49.9928 216.81 48.407 218.792 47.2793C220.809 46.1164 223.127 45.5349 225.746 45.5349C229.532 45.5349 232.541 46.7331 234.77 49.1294C237 51.4906 238.114 54.6974 238.114 58.7501C238.114 59.8595 237.211 60.7588 236.097 60.7588H220.013C220.296 62.8027 221.039 64.3005 222.242 65.252C223.481 66.1682 225.18 66.6263 227.338 66.6263C228.754 66.6263 230.187 66.4149 231.638 65.992C232.119 65.8518 232.584 65.6865 233.034 65.496C234.391 64.9214 236.103 65.3869 236.646 66.7518L237.066 67.8063C237.434 68.7334 237.144 69.8069 236.274 70.3005C235.269 70.8707 234.131 71.3552 232.859 71.7538C230.983 72.3177 229.09 72.5996 227.179 72.5996ZM226.064 50.821C224.366 50.821 222.986 51.332 221.924 52.354C220.898 53.3759 220.261 54.8032 220.013 56.6357H231.479C231.267 52.7592 229.462 50.821 226.064 50.821Z" fill="black"/>
<path d="M245.005 72.0181C243.774 72.0181 242.777 71.0245 242.777 69.7987V48.2829C242.777 47.0572 243.774 46.0635 245.005 46.0635H248.404C249.635 46.0635 250.633 47.0572 250.633 48.2829V50.5567C251.871 47.526 254.526 45.8521 258.595 45.5349L258.713 45.5269C259.939 45.4437 261.001 46.3639 261.088 47.5843L261.257 49.9514C261.341 51.1441 260.462 52.1895 259.268 52.3154L256.897 52.5654C252.933 52.953 250.951 54.9617 250.951 58.5915V69.7987C250.951 71.0245 249.953 72.0181 248.723 72.0181H245.005Z" fill="black"/>
<path d="M274.373 72.5996C272.073 72.5996 269.932 72.3353 267.95 71.8067C266.649 71.4596 265.493 71.029 264.481 70.5148C263.582 70.0575 263.256 68.9826 263.604 68.0387L263.98 67.0178C264.467 65.6974 266.054 65.1585 267.358 65.6998C268.001 65.9668 268.676 66.2052 269.383 66.4149C271.082 66.873 272.763 67.1021 274.426 67.1021C275.913 67.1021 277.01 66.873 277.717 66.4149C278.425 65.9215 278.779 65.2872 278.779 64.5119C278.779 63.2785 277.877 62.5032 276.072 62.186L270.498 61.1817C268.269 60.794 266.57 60.0011 265.402 58.803C264.234 57.6048 263.65 56.0366 263.65 54.0984C263.65 52.3363 264.146 50.821 265.137 49.5523C266.127 48.2837 267.49 47.2969 269.224 46.5921C270.958 45.8873 272.958 45.5349 275.222 45.5349C277.098 45.5349 278.921 45.7816 280.69 46.275C281.874 46.5815 282.947 47.0142 283.909 47.5732C284.75 48.0616 285.014 49.109 284.659 50.0114L284.295 50.9362C283.761 52.2929 282.063 52.7855 280.718 52.2111C280.304 52.0341 279.87 51.8703 279.416 51.7196C277.965 51.2263 276.603 50.9796 275.329 50.9796C273.736 50.9796 272.586 51.2439 271.878 51.7725C271.17 52.2658 270.816 52.9002 270.816 53.6755C270.816 54.9089 271.648 55.6842 273.311 56.0013L278.885 57.0057C281.185 57.3933 282.937 58.1686 284.14 59.3316C285.344 60.4593 285.945 62.0098 285.945 63.9833C285.945 66.6968 284.884 68.8112 282.76 70.3266C280.637 71.8419 277.841 72.5996 274.373 72.5996Z" fill="black"/>
<path d="M298.879 72.0181C297.973 72.0181 297.157 71.4717 296.815 70.636L288.014 49.1202C287.417 47.6605 288.496 46.0635 290.078 46.0635H293.336C294.268 46.0635 295.101 46.6405 295.425 47.5102L301.096 62.7146L306.768 47.5102C307.092 46.6405 307.925 46.0635 308.857 46.0635H311.059C311.994 46.0635 312.829 46.6446 313.151 47.5187L318.826 62.9261L324.501 47.5187C324.823 46.6446 325.659 46.0635 326.593 46.0635H329.432C331.012 46.0635 332.09 47.6543 331.499 49.113L322.786 70.6288C322.446 71.4683 321.628 72.0181 320.719 72.0181H316.956C316.036 72.0181 315.21 71.4547 314.878 70.5999L309.696 57.27L304.666 70.5804C304.339 71.4454 303.508 72.0181 302.58 72.0181H298.879Z" fill="black"/>
<path d="M344.018 72.5996C342.071 72.5996 340.355 72.2296 338.868 71.4895C337.382 70.7495 336.197 69.7451 335.312 68.4765C334.463 67.2078 334.038 65.7806 334.038 64.1947C334.038 62.327 334.533 60.8293 335.524 59.7016C336.515 58.5739 338.125 57.781 340.355 57.3229C342.584 56.8295 345.539 56.5828 349.22 56.5828H351.131V55.6842C351.131 54.1336 350.777 53.0411 350.069 52.4068C349.361 51.7372 348.158 51.4025 346.459 51.4025C345.044 51.4025 343.54 51.6315 341.947 52.0896C341.149 52.3065 340.35 52.5836 339.552 52.921C338.312 53.4447 336.826 52.9426 336.32 51.7002L335.79 50.3992C335.389 49.4159 335.739 48.2766 336.698 47.8124C337.235 47.5522 337.817 47.304 338.444 47.0679C339.789 46.5745 341.186 46.2045 342.637 45.9578C344.088 45.6759 345.469 45.5349 346.778 45.5349C350.812 45.5349 353.82 46.4512 355.802 48.2837C357.784 50.0809 358.775 52.8826 358.775 56.6885V69.7987C358.775 71.0245 357.777 72.0181 356.546 72.0181H353.519C352.288 72.0181 351.29 71.0245 351.29 69.7987V68.1064C350.759 69.4808 349.857 70.5733 348.583 71.3838C347.344 72.1943 345.822 72.5996 344.018 72.5996ZM345.822 67.2607C347.309 67.2607 348.565 66.7497 349.591 65.7277C350.618 64.7057 351.131 63.3842 351.131 61.7632V60.7059H349.273C346.548 60.7059 344.619 60.9526 343.487 61.446C342.354 61.9041 341.788 62.7146 341.788 63.8776C341.788 64.8643 342.124 65.6748 342.797 66.3092C343.504 66.9435 344.513 67.2607 345.822 67.2607Z" fill="black"/>
<path d="M366.983 81.533C365.752 81.533 364.754 80.5394 364.754 79.3136V48.2829C364.754 47.0572 365.752 46.0635 366.983 46.0635H370.382C371.613 46.0635 372.61 47.0572 372.61 48.2829V49.9224C373.318 48.5832 374.398 47.526 375.848 46.7507C377.335 45.9402 378.998 45.5349 380.838 45.5349C383.103 45.5349 385.085 46.0811 386.784 47.1736C388.518 48.2661 389.862 49.8166 390.818 51.8253C391.773 53.834 392.251 56.2304 392.251 59.0144C392.251 61.7984 391.773 64.2124 390.818 66.2563C389.862 68.265 388.518 69.8332 386.784 70.9609C385.085 72.0534 383.103 72.5996 380.838 72.5996C379.104 72.5996 377.512 72.2296 376.061 71.4895C374.645 70.7495 373.548 69.7627 372.77 68.5293V79.3136C372.77 80.5394 371.772 81.533 370.541 81.533H366.983ZM378.45 66.6263C380.148 66.6263 381.528 66.0096 382.59 64.7762C383.652 63.5428 384.183 61.6222 384.183 59.0144C384.183 56.4418 383.652 54.5565 382.59 53.3583C381.528 52.1249 380.148 51.5082 378.45 51.5082C376.715 51.5082 375.318 52.1249 374.256 53.3583C373.194 54.5565 372.663 56.4418 372.663 59.0144C372.663 61.6222 373.194 63.5428 374.256 64.7762C375.318 66.0096 376.715 66.6263 378.45 66.6263Z" fill="black"/>
<path opacity="0.3" d="M26.7311 33.5396C26.7311 29.7792 29.7795 26.7307 33.54 26.7307H92.2669C96.0274 26.7307 99.0758 29.7792 99.0758 33.5396V92.2666C99.0758 96.027 96.0274 99.0755 92.2669 99.0755H33.54C29.7795 99.0755 26.7311 96.027 26.7311 92.2666V33.5396Z" fill="black"/>
<path opacity="0.5" d="M85.7101 78.902C85.7101 82.6625 82.6616 85.7109 78.9012 85.7109H20.1742C16.4138 85.7109 13.3653 82.6625 13.3653 78.902V20.1751C13.3653 16.4146 16.4138 13.3662 20.1742 13.3662H78.9012C82.6616 13.3662 85.7101 16.4146 85.7101 20.1751V78.902Z" fill="black"/>
<path opacity="0.9" d="M72.3447 65.5358C72.3447 69.2963 69.2963 72.3447 65.5358 72.3447H6.80889C3.04842 72.3447 -3.38349e-05 69.2963 -3.38349e-05 65.5358V6.80889C-3.38349e-05 3.04842 3.04843 -3.38349e-05 6.80889 -3.38349e-05H65.5358C69.2963 -3.38349e-05 72.3447 3.04843 72.3447 6.80889V65.5358Z" fill="black"/>
</svg>
